<svg width="30" height="30" viewBox="0 0 30 30" fill="none" xmlns="http://www.w3.org/2000/svg">
<g clip-path="url(#clip0_1371_6369)">
<path d="M8.76383 23.4145C8.19059 23.4145 7.73458 23.2544 7.41969 22.9327C6.64614 22.1432 6.81307 20.4405 7.87722 18.261C9.95431 14.0078 14.8285 9.07287 18.7422 7.26059C20.5291 6.43317 21.8925 6.3645 22.5811 7.06749C23.3547 7.85697 23.1877 9.55961 22.1236 11.7391C20.0465 15.9923 15.1723 20.9273 11.2586 22.7395C10.2889 23.1887 9.44367 23.4141 8.76345 23.4141L8.76383 23.4145ZM18.7794 7.34064C14.8813 9.14571 10.026 14.0621 7.95651 18.3001C6.90943 20.4439 6.73682 22.1102 7.48267 22.8716C8.14355 23.5461 9.47136 23.471 11.2222 22.6603C15.1203 20.8552 19.9756 15.9388 22.0451 11.7008C23.0921 9.55696 23.2648 7.89073 22.5189 7.12932C21.8584 6.45479 20.5302 6.52991 18.7794 7.34064Z" fill="#51B3B0"/>
<path d="M8.35208 23.5286C7.6821 23.5286 7.1616 23.3363 6.82471 22.9516C6.03636 22.0521 6.32621 20.1962 7.6195 17.8592C10.0593 13.4508 15.3448 8.56939 19.4014 6.97752C21.1834 6.27833 22.5241 6.30337 23.1762 7.04771C23.9646 7.94721 23.6747 9.80312 22.3814 12.1401C19.9417 16.5484 14.6562 21.4299 10.5995 23.0218C9.73795 23.3598 8.97919 23.5286 8.35208 23.5286ZM21.6492 6.55755C21.0343 6.55755 20.2865 6.72486 19.4333 7.05947C15.3926 8.64489 10.1272 13.5085 7.69614 17.9021C6.42181 20.2045 6.12817 22.024 6.89072 22.8939C7.51669 23.6083 8.82251 23.6246 10.5673 22.9402C14.608 21.3548 19.8734 16.4908 22.3044 12.0976C23.5788 9.79516 23.8724 7.97566 23.1098 7.10575C22.7897 6.74041 22.2923 6.55793 21.6489 6.55793L21.6492 6.55755Z" fill="#51B3B0"/>
<path d="M7.97364 23.6154C7.18453 23.6154 6.58588 23.3828 6.22585 22.9219C5.42802 21.9002 5.85444 19.8873 7.39585 17.3997C10.2104 12.8574 15.9011 8.0727 20.0815 6.7335C21.8471 6.16785 23.1578 6.28963 23.772 7.07608C24.5699 8.09774 24.1438 10.1107 22.602 12.5983C19.7874 17.1406 14.0968 21.9253 9.91643 23.2645C9.18499 23.4989 8.5317 23.615 7.97364 23.615V23.6154ZM22.0258 6.47021C21.4776 6.47021 20.8326 6.58554 20.1084 6.81734C15.9451 8.15123 10.2761 12.9192 7.47058 17.4463C5.94966 19.9009 5.52135 21.8771 6.29527 22.868C6.88521 23.6234 8.16181 23.7345 9.88987 23.181C14.0532 21.8471 19.7226 17.0791 22.5277 12.552C24.0486 10.0974 24.4769 8.12126 23.703 7.13033C23.3604 6.69139 22.7857 6.47021 22.0258 6.47021Z" fill="#51B3B0"/>
<path d="M7.62042 23.6832C6.69284 23.6832 6.01641 23.4001 5.62983 22.8406C4.82934 21.6823 5.40675 19.5108 7.21449 16.8828C10.4142 12.2313 16.5001 7.58922 20.7818 6.53493C22.5455 6.10054 23.7857 6.31641 24.3684 7.159C25.1689 8.31724 24.5915 10.4888 22.7837 13.1167C19.5841 17.7683 13.4981 22.4103 9.21646 23.4643C8.62387 23.6103 8.09009 23.6828 7.6208 23.6828L7.62042 23.6832ZM22.3782 6.40442C21.9161 6.40442 21.3895 6.47612 20.8026 6.62067C16.5392 7.6704 10.476 12.2965 7.28695 16.9329C5.50122 19.5294 4.92343 21.6641 5.70229 22.7909C6.26225 23.6008 7.47019 23.8046 9.19559 23.3797C13.459 22.3299 19.5222 17.7038 22.7113 13.0674C24.497 10.471 25.0748 8.33621 24.2959 7.20946C23.9264 6.67492 23.2747 6.40442 22.3782 6.40442Z" fill="#51B3B0"/>
<path d="M7.34476 23.7185C6.2347 23.7185 5.44749 23.3737 5.0389 22.6988C4.24563 21.3888 4.98959 19.0579 7.07957 16.3044C10.6723 11.5709 17.1403 7.12117 21.4974 6.3848C23.224 6.09306 24.4217 6.40908 24.9604 7.2991C25.7537 8.60909 25.0097 10.94 22.9197 13.6935C19.327 18.427 12.859 22.8767 8.50186 23.6131C8.08454 23.6836 7.69834 23.7185 7.34476 23.7185ZM22.6553 6.36735C22.3066 6.36735 21.925 6.40187 21.5122 6.47168C17.174 7.20463 10.7307 11.6392 7.14976 16.3575C5.11288 19.0412 4.35185 21.3945 5.11402 22.6532C5.63263 23.5095 6.79883 23.8115 8.48706 23.5262C12.8256 22.7932 19.2686 18.3587 22.8495 13.6404C24.8864 10.9567 25.6474 8.6034 24.8853 7.34462C24.4937 6.69779 23.732 6.36735 22.6553 6.36735Z" fill="#51B3B0"/>
<path d="M7.14818 23.7368C5.80822 23.7368 4.88368 23.3127 4.4565 22.4947C3.69585 21.0379 4.64505 18.4855 6.99605 15.6675C10.9875 10.8824 17.8193 6.67661 22.2246 6.2923C23.906 6.14548 25.054 6.56545 25.5453 7.50592C26.306 8.96273 25.3568 11.5152 23.0058 14.3332C19.014 19.1183 12.1825 23.324 7.77719 23.7084C7.55829 23.7273 7.3485 23.7368 7.14818 23.7368ZM22.2284 6.33592L22.2322 6.37955C17.847 6.76197 11.0425 10.9537 7.06358 15.7236C4.73611 18.5135 3.7907 21.0296 4.53466 22.4541C5.00812 23.3608 6.1269 23.7641 7.7696 23.6207C12.1548 23.2383 18.9593 19.0466 22.9382 14.2767C25.2657 11.4867 26.2111 8.9707 25.4672 7.54652C24.9937 6.63981 23.8749 6.23653 22.2318 6.37993L22.228 6.3363L22.2284 6.33592Z" fill="#51B3B0"/>
<path d="M7.04592 23.7418H7.04365C5.41498 23.7415 4.32238 23.2145 3.88344 22.2179C3.1611 20.5778 4.31289 17.8676 6.96474 14.9687C11.3575 10.1662 18.5285 6.25977 22.9513 6.25977H22.9536C24.5822 6.26015 25.6749 6.7871 26.1138 7.78372C26.8361 9.42377 25.684 12.134 23.0325 15.0329C18.6397 19.8354 11.4687 23.7418 7.04592 23.7418ZM22.9517 6.3474C18.5502 6.3474 11.4088 10.2409 7.02999 15.0279C4.40242 17.9006 3.25633 20.5752 3.96424 22.1826C4.38801 23.1447 5.45292 23.6534 7.04403 23.6538H7.0463C11.4478 23.6538 18.5896 19.7603 22.968 14.9733C25.5956 12.1007 26.7417 9.42605 26.0337 7.81863C25.61 6.85653 24.5451 6.34778 22.954 6.3474H22.9517Z" fill="#51B3B0"/>
<path d="M7.05208 23.741C6.79714 23.741 6.55092 23.73 6.31305 23.7072C4.74243 23.5574 3.71129 22.9185 3.33115 21.8593C2.67028 20.0185 4.04134 17.158 6.99783 14.2076C11.7935 9.42216 19.2802 5.87157 23.6866 6.29154C25.2572 6.4414 26.2884 7.08027 26.6685 8.13949C27.329 9.98023 25.9583 12.8407 23.0019 15.7911C18.4649 20.3183 11.5192 23.7406 7.05208 23.741ZM22.9449 6.34579C18.5002 6.34579 11.583 9.75753 7.06043 14.2702C4.12822 17.196 2.76512 20.022 3.41423 21.8297C3.78185 22.8544 4.7872 23.4732 6.32178 23.6196C10.7047 24.0377 18.1602 20.4981 22.94 15.7289C25.8722 12.8032 27.2353 9.97719 26.5862 8.16946C26.2186 7.14476 25.2132 6.526 23.6787 6.37956C23.4427 6.35718 23.1976 6.34617 22.9449 6.34617V6.34579Z" fill="#51B3B0"/>
<path d="M7.17942 23.7475C6.61035 23.7475 6.07695 23.7 5.58603 23.6018C4.07687 23.2994 3.11401 22.5418 2.80065 21.4116C2.23082 19.3543 3.83635 16.3549 7.09558 13.3886C12.2904 8.66115 20.0593 5.52484 24.4126 6.39779C25.9218 6.70015 26.8846 7.45777 27.198 8.58793C27.7678 10.6453 26.1623 13.6447 22.9031 16.611C18.2936 20.8058 11.658 23.7475 7.17942 23.7478V23.7475ZM22.8143 6.33899C18.3589 6.33899 11.7498 9.27195 7.15514 13.4534C3.92095 16.397 2.32491 19.363 2.88563 21.3877C3.18913 22.4838 4.12923 23.2197 5.60349 23.5153C6.09023 23.6128 6.6206 23.6598 7.18511 23.6598C11.6405 23.6598 18.2496 20.7269 22.8443 16.5454C26.0785 13.6018 27.6749 10.6358 27.1138 8.61108C26.8103 7.51506 25.8702 6.77906 24.3959 6.48353C23.9092 6.38603 23.3788 6.33899 22.8143 6.33899Z" fill="#51B3B0"/>
<path d="M7.45157 23.7733C6.4963 23.7733 5.62487 23.6587 4.87067 23.4186C3.42524 22.958 2.53674 22.0733 2.30114 20.8604C1.85727 18.5732 3.71281 15.452 7.26416 12.5107C12.852 7.88347 20.8652 5.22328 25.1271 6.58145C26.5726 7.04202 27.4611 7.92672 27.6966 9.13959C28.1405 11.4269 26.285 14.548 22.7336 17.4893C18.1348 21.2975 11.8929 23.7733 7.45157 23.7737V23.7733ZM22.5402 6.31323C18.1219 6.31323 11.9047 8.78222 7.3203 12.5786C3.79399 15.4991 1.94984 18.5887 2.38726 20.8438C2.61603 22.0232 3.48404 22.8848 4.89684 23.3351C9.13373 24.6849 17.1098 22.0323 22.6771 17.4218C26.2034 14.5013 28.0476 11.4117 27.6098 9.15666C27.381 7.97718 26.513 7.11561 25.1002 6.66567C24.3521 6.42742 23.4871 6.31361 22.5398 6.31361L22.5402 6.31323Z" fill="#51B3B0"/>
<path d="M7.88737 23.8351C6.46395 23.8351 5.19456 23.6158 4.17479 23.1526C2.79348 22.5255 1.98768 21.5012 1.84428 20.1912C1.56847 17.6672 3.68653 14.4467 7.50989 11.5767C13.4802 7.09512 21.6959 4.97402 25.8243 6.84814C27.2056 7.47525 28.0114 8.49957 28.1548 9.80956C28.4306 12.3336 26.3126 15.5541 22.4892 18.4241C17.994 21.7986 12.2256 23.8347 7.88737 23.8347V23.8351ZM22.106 6.25214C17.7903 6.25214 12.0438 8.28295 7.56225 11.6473C3.76393 14.4987 1.65876 17.6892 1.93154 20.1821C2.07115 21.4598 2.85949 22.4595 4.21083 23.073C8.31304 24.9357 16.489 22.8188 22.4361 18.3543C26.2344 15.5029 28.3396 12.3123 28.0668 9.81942C27.9272 8.54168 27.1389 7.54202 25.7875 6.92857C24.7765 6.46952 23.5177 6.25214 22.106 6.25214Z" fill="#51B3B0"/>
<path d="M8.49406 23.9497C6.51447 23.9497 4.77996 23.5786 3.50449 22.7971C2.18767 21.9898 1.47445 20.8099 1.44258 19.385C1.38074 16.6254 3.77081 13.3362 7.83584 10.5865C14.1749 6.29876 22.5454 4.78011 26.4955 7.20129C27.8123 8.00861 28.5252 9.18847 28.5574 10.6134C28.6193 13.373 26.2292 16.6622 22.1642 19.4119C17.8715 22.3157 12.6463 23.9497 8.49406 23.9497ZM21.5033 6.13411C17.3715 6.13411 12.1653 7.76391 7.88516 10.6593C3.84479 13.3923 1.46951 16.6535 1.53059 19.3831C1.5617 20.7769 2.26014 21.9314 3.5504 22.7224C7.47391 25.1272 15.8016 23.6097 22.1148 19.3395C26.1548 16.6064 28.5305 13.3453 28.4694 10.6157C28.4383 9.22186 27.7399 8.06741 26.4496 7.27641C25.1863 6.5021 23.4658 6.13411 21.5033 6.13411Z" fill="#51B3B0"/>
<path d="M9.26147 24.1408C6.64377 24.1408 4.36978 23.5581 2.86783 22.3498C1.61664 21.3433 1.0104 19.9863 1.11511 18.4259C1.31504 15.444 3.98092 12.1244 8.24702 9.54617C14.9362 5.50315 23.4088 4.65183 27.1335 7.64853C28.3847 8.65502 28.991 10.012 28.8863 11.5724C28.6863 14.5543 26.0205 17.8739 21.7544 20.4521C17.7626 22.8646 13.1357 24.1408 9.26185 24.1408H9.26147ZM20.7399 5.94323C16.8839 5.94323 12.273 7.21604 8.29216 9.62205C4.05073 12.1851 1.4004 15.4789 1.20274 18.4319C1.10031 19.9623 1.6948 21.2936 2.92284 22.2815C6.62101 25.2569 15.0485 24.4026 21.7085 20.377C25.9499 17.8136 28.6002 14.5202 28.7983 11.5667C28.9007 10.0363 28.3058 8.70509 27.0782 7.7172C25.5902 6.52026 23.336 5.94285 20.7399 5.94285V5.94323Z" fill="#51B3B0"/>
<path d="M10.1555 24.4291C6.83143 24.4291 3.9512 23.5584 2.27132 21.8065C1.08956 20.5739 0.609645 19.0146 0.883555 17.2968C1.39002 14.1207 4.32906 10.8171 8.74576 8.46036C15.7631 4.71591 24.2786 4.59678 27.7283 8.1948C28.91 9.42739 29.3899 10.9866 29.116 12.7045C28.6096 15.8806 25.6705 19.1842 21.2538 21.5409C17.6535 23.4621 13.6583 24.4291 10.1555 24.4291ZM19.8475 5.65752C16.3595 5.65752 12.3775 6.6219 8.78712 8.53813C4.39469 10.8819 1.47235 14.1616 0.970432 17.3108C0.701074 19.0002 1.17302 20.5337 2.33467 21.7458C5.75893 25.3172 14.2274 25.1909 21.2125 21.4635C25.6049 19.1197 28.5272 15.84 29.0292 12.6908C29.2985 11.0014 28.8266 9.46799 27.6649 8.25588C26.001 6.52023 23.1446 5.6579 19.8475 5.6579V5.65752Z" fill="#51B3B0"/>
<path d="M11.1209 24.8294C7.04904 24.8294 3.51059 23.574 1.72524 21.1604C0.621252 19.668 0.293849 17.8765 0.778314 15.9804C1.62812 12.6537 4.82816 9.42023 9.3382 7.33062C16.656 3.94013 25.1506 4.61769 28.274 8.84092C29.378 10.3334 29.7054 12.1248 29.221 14.0209C28.3712 17.3477 25.1711 20.5811 20.6611 22.6707C17.5255 24.1234 14.1734 24.8294 11.1209 24.8294ZM18.8833 5.2577C15.8426 5.2577 12.5018 5.96145 9.375 7.41029C4.88848 9.48889 1.70665 12.7007 0.863294 16.002C0.385658 17.8716 0.708129 19.6372 1.7958 21.1081C4.89569 25.2994 13.3418 25.9649 20.6239 22.5911C25.1104 20.5125 28.2923 17.3006 29.1356 13.9993C29.6132 12.1297 29.2908 10.3641 28.2031 8.89327C26.4344 6.50168 22.9241 5.2577 18.8833 5.2577Z" fill="#51B3B0"/>
<path d="M12.0869 25.3573C7.25628 25.3573 3.03533 23.5974 1.23936 20.4099C0.228323 18.6158 0.0875745 16.5615 0.831912 14.4696C2.04782 11.0518 5.48573 7.94658 10.0284 6.16312C17.6152 3.18464 26.0191 4.72301 28.7624 9.59193C29.7735 11.386 29.9142 13.4403 29.1699 15.5322C27.954 18.95 24.516 22.0552 19.9734 23.8387C17.3534 24.8672 14.6352 25.3569 12.0869 25.3573ZM17.9191 4.73098C15.3806 4.73098 12.6719 5.21923 10.0599 6.24469C5.54074 8.01904 2.12179 11.1045 0.914237 14.4988C0.178625 16.566 0.317477 18.5953 1.31562 20.3666C4.03841 25.1987 12.3934 26.7197 19.9408 23.7567C24.4599 21.9824 27.8792 18.8969 29.0864 15.5026C29.822 13.4354 29.6832 11.4061 28.685 9.6348C26.9046 6.47497 22.7155 4.73098 17.9187 4.73098H17.9191Z" fill="#51B3B0"/>
<path d="M12.9808 26.0193C7.40551 26.0193 2.51383 23.6133 0.819149 19.5517C-0.0758014 17.4078 0.012214 15.0606 1.07257 12.7643C2.65989 9.32711 6.30191 6.41122 10.8157 4.96389C18.6339 2.45735 26.8725 4.91837 29.181 10.4501C30.0756 12.5935 29.9879 14.9407 28.9272 17.2371C27.3399 20.6743 23.6979 23.5902 19.184 25.0375C17.1062 25.7037 14.9984 26.0189 12.9805 26.0189L12.9808 26.0193ZM17.0227 4.0697C15.0124 4.0697 12.9133 4.38382 10.8423 5.04773C6.3516 6.48747 2.72931 9.38591 1.15224 12.8011C0.102506 15.0747 0.0148697 17.3972 0.899956 19.5176C2.58098 23.5462 7.43852 25.9317 12.977 25.9321C14.9874 25.9321 17.0865 25.6179 19.1575 24.954C23.6482 23.5143 27.2705 20.6159 28.8475 17.2007C29.8973 14.9271 29.9845 12.6045 29.0998 10.4842C27.4188 6.4556 22.5612 4.0697 17.0227 4.0697Z" fill="#51B3B0"/>
<path d="M13.7486 26.8176C7.45698 26.8176 1.94615 23.6043 0.476065 18.5825C-0.269032 16.0372 0.0963084 13.3721 1.53301 10.8762C3.50539 7.44852 7.21342 4.84751 11.7056 3.74011C19.7135 1.76621 27.707 5.21095 29.5242 11.4187C30.2693 13.9639 29.904 16.6287 28.4673 19.125C26.4949 22.5527 22.7868 25.1537 18.2943 26.2611C16.7646 26.6382 15.2342 26.8176 13.7482 26.8176H13.7486ZM16.2532 3.2712C14.7733 3.2712 13.2508 3.44951 11.7265 3.82547C7.25705 4.92718 3.56951 7.51301 1.60888 10.9198C0.184703 13.3949 -0.177981 16.0357 0.560287 18.5578C2.01899 23.5413 7.49454 26.7296 13.7467 26.73C15.2266 26.73 16.7491 26.5517 18.2734 26.1757C22.7428 25.074 26.4304 22.4882 28.391 19.0814C29.8152 16.6063 30.1779 13.9655 29.4396 11.4437C27.9809 6.46024 22.5054 3.27158 16.2532 3.27158V3.2712Z" fill="#51B3B0"/>
<path d="M14.3523 27.7512C7.37707 27.7512 1.33322 23.5545 0.218988 17.5019C-0.325797 14.5436 0.389708 11.4634 2.23386 8.82825C4.53326 5.54208 8.3479 3.23547 12.6994 2.4991C20.8495 1.12006 28.5126 5.60658 29.7816 12.4995C30.3264 15.4579 29.6108 18.538 27.7671 21.1728C25.4677 24.459 21.653 26.7656 17.3016 27.5019C16.3084 27.67 15.3212 27.7508 14.3531 27.7508L14.3523 27.7512ZM15.6483 2.33824C14.6843 2.33824 13.7028 2.41867 12.7138 2.58598C8.38546 3.31817 4.59207 5.61189 2.30594 8.8787C0.475447 11.4945 -0.235126 14.5512 0.305486 17.486C1.41213 23.4961 7.41918 27.6632 14.3519 27.6632C15.3159 27.6632 16.2974 27.5828 17.2864 27.4154C21.6147 26.6832 25.4085 24.3895 27.6942 21.1227C29.5243 18.5073 30.2349 15.4507 29.6943 12.5154C28.5877 6.50532 22.5806 2.33824 15.6479 2.33824H15.6483Z" fill="#51B3B0"/>
<path d="M14.7716 28.8137C7.13965 28.8144 0.681518 23.4478 0.0566841 16.3075C-0.606467 8.72489 5.55727 1.9697 13.7966 1.24888C17.7873 0.899857 21.6645 2.00157 24.7135 4.35067C27.7641 6.70091 29.6208 10.0186 29.9421 13.6925C30.2634 17.366 29.0107 20.9556 26.415 23.8002C23.8201 26.6436 20.1933 28.4017 16.2026 28.7507C15.7223 28.7928 15.2439 28.8133 14.7716 28.8133V28.8137ZM15.2431 1.27354C14.7659 1.27354 14.286 1.29441 13.8042 1.33652C5.61304 2.05316 -0.514658 8.76548 0.14432 16.2995C0.764981 23.3935 7.18594 28.7253 14.7716 28.7256C15.242 28.7256 15.7162 28.7052 16.195 28.6634C20.1637 28.3163 23.77 26.5681 26.3502 23.741C28.9292 20.915 30.1739 17.3493 29.8549 13.7004C29.5354 10.0516 27.6909 6.75592 24.66 4.42086C21.9964 2.36843 18.6966 1.27392 15.2431 1.27392V1.27354Z" fill="#51B3B0"/>
<path d="M14.9998 30C6.72901 30 0 23.271 0 14.9998C0 6.72863 6.72901 0 14.9998 0C23.2706 0 29.9996 6.72901 29.9996 14.9998C29.9996 23.2706 23.2706 29.9996 14.9998 29.9996V30ZM14.9998 0.0880155C6.77757 0.0880155 0.0880155 6.77757 0.0880155 14.9998C0.0880155 23.222 6.77757 29.912 14.9998 29.912C23.222 29.912 29.912 23.2224 29.912 14.9998C29.912 6.77719 23.2224 0.0880155 14.9998 0.0880155Z" fill="#51B3B0"/>
</g>
<defs>
<clipPath id="clip0_1371_6369">
<rect width="30" height="30" fill="white"/>
</clipPath>
</defs>
</svg>
