<svg width="18" height="18" viewBox="0 0 18 18" fill="currentColor" preserveAspectRatio="xMidYMid meet" xmlns="http://www.w3.org/2000/svg">
  <path 
    id="#path"
    d="M6.1875 9C6.18632 9.10786 6.15683 9.21351 6.10199 9.30639C6.04715 9.39927 5.96887 9.47612 5.875 9.52925V14.625C5.87501 14.722 5.85243 14.8178 5.80906 14.9046L4.55844 17.4046C4.50655 17.5084 4.42675 17.5958 4.328 17.6568C4.22925 17.7179 4.11544 17.7502 3.99934 17.7502C3.88324 17.7502 3.76944 17.7179 3.67069 17.6568C3.57194 17.5958 3.49214 17.5084 3.44025 17.4046L2.19088 14.9046C2.14753 14.8177 2.12497 14.722 2.125 14.625V9.52925C2.03033 9.47704 1.9514 9.4004 1.89643 9.3073C1.84146 9.21421 1.81246 9.10808 1.81246 8.99997C1.81246 8.89186 1.84146 8.78573 1.89643 8.69263C1.9514 8.59954 2.03033 8.5229 2.125 8.47069V4H1.5V5.875C1.5 6.04076 1.43415 6.19973 1.31694 6.31694C1.19973 6.43415 1.04076 6.5 0.875 6.5C0.70924 6.5 0.550268 6.43415 0.433058 6.31694C0.315848 6.19973 0.25 6.04076 0.25 5.875V3.375C0.25 3.20924 0.315848 3.05027 0.433058 2.93306C0.550268 2.81585 0.70924 2.75 0.875 2.75H2.125V2.125C2.125 1.62772 2.32254 1.15081 2.67417 0.799175C3.02581 0.447544 3.50272 0.25 4 0.25C4.49728 0.25 4.97419 0.447544 5.32583 0.799175C5.67746 1.15081 5.875 1.62772 5.875 2.125V8.47069C5.96888 8.52382 6.04715 8.60068 6.102 8.69357C6.15684 8.78647 6.18632 8.89213 6.1875 9ZM17.75 2.125V15.875C17.7495 16.3721 17.5517 16.8487 17.2002 17.2002C16.8487 17.5517 16.3721 17.7495 15.875 17.75H8.375C7.87789 17.7495 7.40129 17.5517 7.04978 17.2002C6.69827 16.8487 6.50055 16.3721 6.5 15.875V2.125C6.50055 1.62789 6.69827 1.15129 7.04978 0.799778C7.40129 0.448265 7.87789 0.250546 8.375 0.25H15.875C16.3721 0.250546 16.8487 0.448265 17.2002 0.799778C17.5517 1.15129 17.7495 1.62789 17.75 2.125ZM15.25 5.875C15.25 5.79291 15.2339 5.71161 15.2025 5.63576C15.1711 5.55991 15.1251 5.49099 15.0671 5.43295C15.009 5.3749 14.9401 5.32887 14.8642 5.29747C14.7884 5.26608 14.7071 5.24995 14.625 5.25H9.625C9.45924 5.25 9.30027 5.31585 9.18306 5.43306C9.06585 5.55027 9 5.70924 9 5.875C9 6.04076 9.06585 6.19973 9.18306 6.31694C9.30027 6.43415 9.45924 6.5 9.625 6.5H14.625C14.7071 6.50005 14.7884 6.48392 14.8642 6.45252C14.9401 6.42113 15.009 6.3751 15.0671 6.31705C15.1251 6.25901 15.1711 6.19009 15.2025 6.11424C15.2339 6.03838 15.25 5.95709 15.25 5.875ZM15.25 3.375C15.25 3.29291 15.2339 3.21162 15.2025 3.13576C15.1711 3.05991 15.1251 2.99099 15.0671 2.93295C15.009 2.8749 14.9401 2.82887 14.8642 2.79747C14.7884 2.76608 14.7071 2.74995 14.625 2.75H9.625C9.45924 2.75 9.30027 2.81585 9.18306 2.93306C9.06585 3.05027 9 3.20924 9 3.375C9 3.54076 9.06585 3.69973 9.18306 3.81694C9.30027 3.93415 9.45924 4 9.625 4H14.625C14.7071 4.00005 14.7884 3.98392 14.8642 3.95252C14.9401 3.92113 15.009 3.8751 15.0671 3.81705C15.1251 3.759 15.1711 3.69009 15.2025 3.61424C15.2339 3.53838 15.25 3.45709 15.25 3.375Z" 
   fill="currentColor"
  />
  
</svg>
