<svg width="18" height="18" viewBox="0 0 18 18" fill="currentColor" xmlns="http://www.w3.org/2000/svg">
<path fill-rule="evenodd" clip-rule="evenodd" d="M9.00033 0.666016C4.39783 0.666016 0.666992 4.39685 0.666992 8.99935C0.666992 10.5743 1.10449 12.0493 1.86533 13.306L1.12199 15.8327C1.07931 15.9778 1.0765 16.1316 1.11386 16.2782C1.15122 16.4247 1.22737 16.5585 1.33429 16.6654C1.44122 16.7723 1.57498 16.8485 1.72151 16.8858C1.86804 16.9232 2.02192 16.9204 2.16699 16.8777L4.69366 16.1343C5.99261 16.9201 7.48219 17.3346 9.00033 17.3327C13.6028 17.3327 17.3337 13.6018 17.3337 8.99935C17.3337 4.39685 13.6028 0.666016 9.00033 0.666016ZM7.11533 10.8852C8.80116 12.5702 10.4103 12.7927 10.9787 12.8135C11.8428 12.8452 12.6845 12.1852 13.012 11.4193C13.053 11.324 13.0678 11.2194 13.0549 11.1165C13.042 11.0135 13.0019 10.9158 12.9387 10.8335C12.482 10.2502 11.8645 9.83102 11.2612 9.41435C11.1353 9.32704 10.9804 9.29198 10.8292 9.31654C10.6779 9.3411 10.5421 9.42336 10.4503 9.54602L9.95033 10.3085C9.9239 10.3494 9.88294 10.3786 9.83575 10.3904C9.78855 10.4021 9.73865 10.3955 9.69616 10.3719C9.35699 10.1777 8.86283 9.84768 8.50783 9.49268C8.15283 9.13768 7.84283 8.66602 7.66866 8.34852C7.64759 8.30806 7.64164 8.26142 7.65187 8.21697C7.6621 8.17252 7.68785 8.13318 7.72449 8.10602L8.49449 7.53435C8.6047 7.43901 8.67585 7.30636 8.6943 7.16181C8.71275 7.01726 8.67721 6.87098 8.59449 6.75102C8.22116 6.20435 7.78616 5.50935 7.15533 5.04852C7.07374 4.9899 6.9784 4.95334 6.87854 4.94239C6.77867 4.93144 6.67768 4.94647 6.58533 4.98602C5.81866 5.31435 5.15533 6.15602 5.18699 7.02185C5.20783 7.59018 5.43033 9.19935 7.11533 10.8852Z" fill="currentColor"/>
</svg>
