<svg width="20" height="20" viewBox="0 0 20 20" fill="none" xmlns="http://www.w3.org/2000/svg">
<g clip-path="url(#clip0_1088_5198)">
<path d="M19.8171 18.9266L14.2892 13.3647C15.4729 11.9507 16.1855 10.1272 16.1855 8.13596C16.1855 3.64252 12.5623 0 8.0692 0C3.57605 0 -0.0664062 3.6425 -0.0664062 8.13562C-0.0664062 12.6287 3.57609 16.2712 8.0692 16.2712C10.1201 16.2712 11.9886 15.5103 13.4148 14.2581L18.9329 19.8109C19.177 20.055 19.573 20.055 19.8167 19.8109C20.0611 19.5666 20.0611 19.1709 19.817 18.9266L19.8171 18.9266ZM8.05865 15C4.27834 15 1.18365 11.9054 1.18365 8.12504C1.18365 4.34473 4.27834 1.25004 8.05865 1.25004C11.839 1.25004 14.9337 4.34473 14.9337 8.12504C14.9337 11.9054 11.839 15 8.05865 15ZM11.1837 7.50004H8.68365V5.00004C8.68365 4.65504 8.40365 4.37504 8.05865 4.37504C7.71365 4.37504 7.43365 4.65504 7.43365 5.00004V7.50004H4.93365C4.58865 7.50004 4.30865 7.78004 4.30865 8.12504C4.30865 8.47004 4.58865 8.75004 4.93365 8.75004H7.43365V11.25C7.43365 11.595 7.71365 11.875 8.05865 11.875C8.40365 11.875 8.68365 11.595 8.68365 11.25V8.75004H11.1837C11.5287 8.75004 11.8087 8.47004 11.8087 8.12504C11.8087 7.78004 11.529 7.50004 11.1837 7.50004Z" fill="#626366"/>
</g>
<defs>
<clipPath id="clip0_1088_5198">
<rect width="20" height="20" fill="white"/>
</clipPath>
</defs>
</svg>
