<svg width="100%" viewBox="0 0 189 70" fill="none" xmlns="http://www.w3.org/2000/svg">
<g clip-path="url(#clip0_144_4241)">
<path d="M28.8201 44.1831H12.4625L26.4014 10.8013L21.6596 0L0 51.8751H1.62837H32.194H34.5954L31.217 44.1831H28.8201Z" fill="url(#paint0_linear_144_4241)"/>
<path d="M54.1876 17.4492H29.3799L32.7582 25.1456H45.8807H46.9446H52.5158C57.731 25.1456 61.6304 29.4302 61.2092 34.6971C60.788 39.9639 56.2068 44.2485 50.9917 44.2485H36.8704L48.1692 69.9996H58.2434L50.2708 51.8309H50.2622L50.2491 51.8002L54.1399 51.7169C54.9085 51.7169 55.6727 51.6423 56.4239 51.4844C64.2966 49.8487 69.9112 42.9022 70.5712 34.605C71.3312 25.0974 63.6061 17.4492 54.192 17.4492H54.1876Z" fill="url(#paint1_linear_144_4241)"/>
<path d="M90.8239 23.9318V22.8135H87.1025V17.9062H87.9667V22.0373H90.1986V17.9062H91.0628V22.0373H91.5969V23.9318H90.8196H90.8239Z" fill="#626366"/>
<path d="M92.422 22.8135V17.9062H95.6397V18.6693H93.2861V19.9192H95.5181V20.6559H93.2861V22.0417H95.7656V22.8179H92.422V22.8135Z" fill="#626366"/>
<path d="M96.7469 22.8135V17.9062H97.6111V19.8885H99.8821V17.9062H100.746V22.8135H99.8821V20.6384H97.6111V22.8135H96.7469Z" fill="#626366"/>
<path d="M102.939 22.8135V18.6693H101.449V17.9062H105.292V18.6693H103.803V22.8135H102.939Z" fill="#626366"/>
<path d="M105.992 22.8135V17.9062H107.577C108.797 17.9062 109.41 18.3799 109.41 19.3271C109.41 19.8358 109.236 20.2042 108.889 20.4366C108.541 20.6691 108.085 20.7831 107.521 20.7831H106.856V22.8135H105.992ZM106.856 20.0507H107.46C108.176 20.0507 108.537 19.8095 108.537 19.3315C108.537 19.0684 108.441 18.8886 108.25 18.7921C108.059 18.6956 107.803 18.6474 107.486 18.6474H106.856V20.0551V20.0507Z" fill="#626366"/>
<path d="M112.171 22.8135V17.9062H116.131V22.8135H115.267V18.6693H113.035V22.8135H112.171Z" fill="#626366"/>
<path d="M117.104 20.3487C117.104 19.5725 117.347 18.9497 117.833 18.4849C118.32 18.02 118.945 17.7832 119.705 17.7832C120.465 17.7832 121.103 18.0156 121.594 18.4849C122.084 18.9497 122.328 19.5725 122.328 20.3487C122.328 21.1249 122.08 21.7345 121.589 22.2169C121.099 22.6993 120.469 22.9405 119.705 22.9405C118.941 22.9405 118.328 22.6993 117.838 22.2169C117.347 21.7345 117.104 21.1117 117.104 20.3487ZM118.046 20.3487C118.046 20.8749 118.202 21.3091 118.515 21.6468C118.828 21.9844 119.227 22.1555 119.718 22.1555C120.209 22.1555 120.612 21.9844 120.925 21.6468C121.238 21.3091 121.39 20.8749 121.39 20.3487C121.39 19.8224 121.233 19.4058 120.925 19.0681C120.617 18.7261 120.213 18.555 119.714 18.555C119.214 18.555 118.819 18.7261 118.511 19.0681C118.202 19.4102 118.046 19.8356 118.046 20.3487Z" fill="#626366"/>
<path d="M123.301 22.8135V17.9062H125.194C125.607 17.9062 125.958 18.0071 126.249 18.2088C126.54 18.4106 126.683 18.7219 126.683 19.1386C126.683 19.4061 126.61 19.6341 126.458 19.8183C126.306 20.0025 126.102 20.134 125.841 20.213V20.2261C126.158 20.2656 126.41 20.3884 126.601 20.5945C126.792 20.7962 126.888 21.0594 126.888 21.3839C126.888 21.6382 126.835 21.8619 126.731 22.0549C126.627 22.2478 126.488 22.3969 126.31 22.5022C126.132 22.6074 125.937 22.6864 125.728 22.739C125.52 22.7916 125.29 22.8135 125.051 22.8135H123.301ZM124.169 18.6298V19.906H124.938C125.224 19.906 125.446 19.849 125.598 19.735C125.75 19.6209 125.824 19.4543 125.824 19.2438C125.824 19.0333 125.746 18.871 125.589 18.7746C125.433 18.6781 125.19 18.6342 124.86 18.6342H124.165L124.169 18.6298ZM124.169 20.6515V22.0812H124.947C125.667 22.0812 126.032 21.8356 126.032 21.3444C126.032 21.0944 125.95 20.919 125.78 20.8094C125.611 20.7041 125.346 20.6515 124.986 20.6515H124.174H124.169Z" fill="#626366"/>
<path d="M127.881 22.8135V17.9062H128.745V19.8534H129.466C130.013 19.8534 130.456 19.9762 130.795 20.2217C131.129 20.4673 131.298 20.8357 131.298 21.3313C131.298 21.8268 131.129 22.1908 130.795 22.4408C130.46 22.6907 130.022 22.8135 129.479 22.8135H127.881ZM128.745 22.0812H129.396C130.082 22.0812 130.425 21.8356 130.425 21.34C130.425 21.0944 130.334 20.9103 130.156 20.7831C129.978 20.6559 129.722 20.5945 129.396 20.5945H128.745V22.0856V22.0812ZM131.971 22.8135V17.9062H132.835V22.8135H131.971Z" fill="#626366"/>
<path d="M134.043 22.8135V17.9062H134.907V22.0373H136.753V17.9062H137.617V22.0373H139.463V17.9062H140.327V22.8135H134.039H134.043Z" fill="#626366"/>
<path d="M141.538 22.8135V17.9062H144.756V18.6693H142.402V19.9192H144.634V20.6559H142.402V22.0417H144.882V22.8179H141.538V22.8135Z" fill="#626366"/>
<path d="M145.863 22.8135V17.9062H146.727V19.8885H148.998V17.9062H149.863V22.8135H148.998V20.6384H146.727V22.8135H145.863Z" fill="#626366"/>
<path d="M151.074 22.8135V17.9062H151.938V21.4979H151.96L154.24 17.9062H155.173V22.8135H154.309V19.2526H154.296L152.025 22.8135H151.079H151.074Z" fill="#626366"/>
<path d="M155.972 22.8135L157.274 20.7348C156.936 20.6471 156.671 20.4849 156.484 20.2481C156.297 20.0112 156.202 19.7174 156.202 19.3622C156.202 18.8623 156.362 18.4939 156.684 18.2615C157.005 18.0247 157.457 17.9062 158.034 17.9062H159.628V22.8135H158.764V20.8532H158.16L157.023 22.8135H155.972ZM158.121 20.1384H158.768V18.643H158.095C157.409 18.643 157.066 18.8886 157.066 19.3841C157.066 19.6385 157.161 19.8271 157.348 19.9542C157.535 20.077 157.795 20.1428 158.125 20.1428L158.121 20.1384Z" fill="#626366"/>
<path d="M87.1025 32.0596V27.1523H87.9667V29.2749H87.9884L90.0206 27.1523H91.1887L88.9176 29.4196L91.3407 32.0596H90.1248L87.9884 29.5994H87.9667V32.0596H87.1025Z" fill="#626366"/>
<path d="M91.9707 32.0596V27.1523H93.864C94.2765 27.1523 94.6282 27.2532 94.9191 27.4549C95.2101 27.6567 95.3534 27.968 95.3534 28.3846C95.3534 28.6522 95.2796 28.8802 95.1276 29.0644C94.9756 29.2486 94.7715 29.3801 94.511 29.4591V29.4722C94.828 29.5117 95.0798 29.6345 95.2709 29.8406C95.4619 30.0423 95.5575 30.3055 95.5575 30.63C95.5575 30.8843 95.5054 31.108 95.4011 31.3009C95.2969 31.4939 95.158 31.643 94.9799 31.7483C94.8019 31.8535 94.6065 31.9324 94.3981 31.9851C94.1896 32.0377 93.9595 32.0596 93.7207 32.0596H91.9707ZM92.8348 27.8716V29.1477H93.6034C93.89 29.1477 94.1115 29.0907 94.2635 28.9767C94.4154 28.8627 94.4893 28.696 94.4893 28.4855C94.4893 28.275 94.4111 28.1128 94.2548 28.0163C94.0984 27.9198 93.8553 27.8759 93.5253 27.8759H92.8305L92.8348 27.8716ZM92.8348 29.8976V31.3273H93.6121C94.3329 31.3273 94.6977 31.0817 94.6977 30.5905C94.6977 30.3405 94.6152 30.1651 94.4458 30.0555C94.2765 29.9502 94.0116 29.8976 93.6512 29.8976H92.8392H92.8348Z" fill="#626366"/>
<path d="M95.957 32.0596L98.0718 27.1523H98.8186L100.912 32.0596H99.9216L99.47 30.937H97.3639L96.9254 32.0596H95.957ZM97.6592 30.1871H99.1704L98.4235 28.1917L97.6636 30.1871H97.6592Z" fill="#626366"/>
<path d="M101.702 32.1079C101.467 32.1079 101.276 32.0859 101.124 32.0377L101.215 31.2702C101.311 31.3009 101.411 31.3185 101.51 31.3185C101.854 31.3185 102.101 31.1168 102.253 30.7089C102.405 30.3011 102.483 29.5819 102.483 28.5513V27.1523H105.827V32.0596H104.963V27.9154H103.317V28.6697C103.317 29.8757 103.191 30.7528 102.943 31.2922C102.696 31.836 102.279 32.1079 101.706 32.1079H101.702Z" fill="#626366"/>
<path d="M107.034 32.0596V27.1523H107.898V30.744H107.92L110.2 27.1523H111.133V32.0596H110.269V28.4987H110.256L107.985 32.0596H107.039H107.034Z" fill="#626366"/>
<path d="M114.338 32.1783V31.5818C113.682 31.5731 113.144 31.3801 112.718 31.003C112.293 30.6258 112.08 30.1347 112.08 29.5251C112.08 28.876 112.284 28.3805 112.688 28.0296C113.092 27.6788 113.643 27.4902 114.338 27.4683V27.0254H115.233V27.4683C115.927 27.4902 116.479 27.6788 116.883 28.0296C117.287 28.3805 117.491 28.8804 117.491 29.5251C117.491 30.1347 117.278 30.6302 116.852 31.003C116.427 31.3801 115.888 31.5731 115.233 31.5818V32.1783H114.338ZM114.338 30.8144V28.227C113.895 28.2577 113.561 28.3936 113.344 28.6217C113.122 28.8541 113.014 29.1567 113.014 29.5295C113.014 30.2969 113.457 30.7223 114.338 30.81V30.8144ZM115.233 30.8144C116.114 30.7267 116.557 30.3013 116.557 29.5338C116.557 29.1611 116.448 28.8585 116.227 28.6261C116.006 28.3936 115.676 28.2621 115.233 28.2314V30.8188V30.8144Z" fill="#626366"/>
<path d="M118.437 32.0596V27.1523H119.301V30.744H119.322L121.602 27.1523H122.536V32.0596H121.672V28.4987H121.659L119.387 32.0596H118.441H118.437Z" fill="#626366"/>
<path d="M123.738 32.0596V27.1523H124.602V29.2749H124.624L126.656 27.1523H127.824L125.553 29.4196L127.976 32.0596H126.761L124.624 29.5994H124.602V32.0596H123.738Z" fill="#626366"/>
<path d="M128.016 32.0596L130.13 27.1523H130.877L132.97 32.0596H131.98L131.529 30.937H129.423L128.984 32.0596H128.016ZM129.718 30.1871H131.229L130.482 28.1917L129.722 30.1871H129.718Z" fill="#626366"/>
<path d="M137.308 33.1701V32.0518H133.587V27.1445H134.451V31.2756H136.683V27.1445H137.547V31.2756H138.081V33.1701H137.304H137.308Z" fill="#626366"/>
<path d="M138.911 32.0596V27.1523H139.775V30.744H139.797L142.077 27.1523H143.01V32.0596H142.146V28.4987H142.133L139.862 32.0596H138.915H138.911Z" fill="#626366"/>
<path d="M144.217 32.0596V27.1523H145.081V30.744H145.103L147.382 27.1523H148.316V32.0596H147.452V28.4987H147.439L145.168 32.0596H144.221H144.217Z" fill="#626366"/>
<path d="M87.1937 41.3461C86.9593 41.3461 86.7682 41.3242 86.6162 41.276L86.7074 40.5085C86.8029 40.5392 86.9028 40.5568 87.0027 40.5568C87.3457 40.5568 87.5932 40.355 87.7496 39.9472C87.9015 39.5394 87.9797 38.8201 87.9797 37.7896V36.3906H91.3233V41.2979H90.4592V37.1537H88.8134V37.908C88.8134 39.114 88.6875 39.991 88.44 40.5305C88.1925 41.0742 87.7756 41.3461 87.2024 41.3461H87.1937Z" fill="#626366"/>
<path d="M91.9355 41.2979L94.0503 36.3906H94.7971L96.8901 41.2979H95.9001L95.4485 40.1752H93.3425L92.9039 41.2979H91.9355ZM93.6377 39.4253H95.1489L94.402 37.43L93.6421 39.4253H93.6377Z" fill="#626366"/>
<path d="M98.883 41.4234C98.1231 41.4234 97.5325 41.1865 97.1113 40.7085L97.6932 40.1209C97.9798 40.4936 98.3619 40.6822 98.8396 40.6822C99.1045 40.6822 99.3346 40.6077 99.5344 40.4629C99.7298 40.3182 99.8296 40.1209 99.8296 39.8709C99.8296 39.3797 99.4518 39.1342 98.6919 39.1342H98.3489V38.3974H98.705C99.3693 38.3974 99.6994 38.1562 99.6994 37.6694C99.6994 37.4721 99.6125 37.3098 99.4432 37.1827C99.2695 37.0555 99.0741 36.9897 98.8483 36.9897C98.4184 36.9897 98.0797 37.1432 97.8322 37.4546L97.2894 36.9151C97.6671 36.481 98.2056 36.2617 98.896 36.2617C99.3997 36.2617 99.8036 36.3801 100.103 36.6125C100.407 36.845 100.555 37.1695 100.555 37.5817C100.555 37.8668 100.477 38.1124 100.32 38.3097C100.164 38.5071 99.9642 38.6386 99.7167 38.7044V38.7263C100.008 38.7965 100.251 38.9324 100.438 39.1429C100.624 39.3491 100.72 39.6122 100.72 39.9279C100.72 40.3928 100.542 40.7612 100.181 41.0287C99.8209 41.2962 99.3867 41.4277 98.8787 41.4277L98.883 41.4234Z" fill="#626366"/>
<path d="M101.71 41.2979V36.3906H104.928V37.1537H102.574V38.4035H104.806V39.1403H102.574V40.5261H105.054V41.3023H101.71V41.2979Z" fill="#626366"/>
<path d="M106.035 41.2979V36.3906H107.62C108.84 36.3906 109.452 36.8642 109.452 37.8115C109.452 38.3202 109.279 38.6886 108.931 38.921C108.584 39.1534 108.128 39.2675 107.564 39.2675H106.899V41.2979H106.035ZM106.899 38.5351H107.503C108.219 38.5351 108.58 38.2939 108.58 37.8159C108.58 37.5528 108.484 37.373 108.293 37.2765C108.102 37.18 107.846 37.1318 107.529 37.1318H106.899V38.5395V38.5351Z" fill="#626366"/>
<path d="M110.355 41.2979V36.3906H111.22V38.3728H113.491V36.3906H114.355V41.2979H113.491V39.1227H111.22V41.2979H110.355Z" fill="#626366"/>
<path d="M115.332 38.833C115.332 38.0568 115.575 37.4341 116.062 36.9692C116.548 36.5044 117.173 36.2676 117.933 36.2676C118.693 36.2676 119.331 36.5 119.822 36.9692C120.313 37.4341 120.556 38.0568 120.556 38.833C120.556 39.6093 120.308 40.2188 119.818 40.7012C119.327 41.1836 118.697 41.4248 117.933 41.4248C117.169 41.4248 116.557 41.1836 116.066 40.7012C115.575 40.2188 115.332 39.5961 115.332 38.833ZM116.274 38.833C116.274 39.3593 116.431 39.7935 116.743 40.1311C117.056 40.4688 117.455 40.6398 117.946 40.6398C118.437 40.6398 118.845 40.4688 119.153 40.1311C119.466 39.7935 119.618 39.3593 119.618 38.833C119.618 38.3068 119.462 37.8902 119.153 37.5525C118.845 37.2104 118.441 37.0394 117.942 37.0394C117.442 37.0394 117.047 37.2104 116.739 37.5525C116.431 37.8946 116.274 38.32 116.274 38.833Z" fill="#626366"/>
<path d="M121.533 41.2969V36.3896H122.397V39.9812H122.419L124.699 36.3896H125.632V41.2969H124.768V37.7359H124.755L122.484 41.2969H121.538H121.533ZM123.548 36.0037C123.248 36.0037 123.001 35.9203 122.801 35.7493C122.601 35.5783 122.48 35.3415 122.445 35.0433L122.905 34.9512C122.927 35.109 122.997 35.2318 123.114 35.3239C123.231 35.416 123.374 35.4643 123.548 35.4643C123.722 35.4643 123.865 35.4204 123.982 35.3239C124.1 35.2318 124.169 35.109 124.191 34.9512L124.66 35.0433C124.616 35.3415 124.499 35.5783 124.299 35.7493C124.1 35.9203 123.848 36.0037 123.548 36.0037Z" fill="#626366"/>
<path d="M128.689 41.2979V36.3906H129.554V38.5132H129.575L131.608 36.3906H132.776L130.505 38.6579L132.928 41.2979H131.712L129.575 38.8377H129.554V41.2979H128.689Z" fill="#626366"/>
<path d="M133.049 38.833C133.049 38.0568 133.292 37.4341 133.778 36.9692C134.265 36.5044 134.89 36.2676 135.65 36.2676C136.41 36.2676 137.048 36.5 137.539 36.9692C138.029 37.4341 138.273 38.0568 138.273 38.833C138.273 39.6093 138.025 40.2188 137.534 40.7012C137.044 41.1836 136.414 41.4248 135.65 41.4248C134.886 41.4248 134.273 41.1836 133.783 40.7012C133.292 40.2188 133.049 39.5961 133.049 38.833ZM133.987 38.833C133.987 39.3593 134.143 39.7935 134.456 40.1311C134.768 40.4688 135.168 40.6398 135.659 40.6398C136.149 40.6398 136.557 40.4688 136.866 40.1311C137.178 39.7935 137.33 39.3593 137.33 38.833C137.33 38.3068 137.174 37.8902 136.866 37.5525C136.557 37.2104 136.154 37.0394 135.654 37.0394C135.155 37.0394 134.76 37.2104 134.451 37.5525C134.143 37.8946 133.987 38.32 133.987 38.833Z" fill="#626366"/>
<path d="M143.414 37.0131L142.754 37.5393C142.637 37.3727 142.472 37.2455 142.272 37.1622C142.068 37.0745 141.859 37.035 141.651 37.035C141.156 37.035 140.752 37.2061 140.439 37.5481C140.127 37.8902 139.971 38.3156 139.971 38.8287C139.971 39.3418 140.118 39.8022 140.422 40.1355C140.722 40.4688 141.121 40.6398 141.621 40.6398C142.12 40.6398 142.528 40.4513 142.802 40.0697L143.496 40.5609C143.045 41.1354 142.415 41.4204 141.616 41.4204C140.856 41.4204 140.235 41.1792 139.749 40.6969C139.263 40.2145 139.02 39.5917 139.02 38.8287C139.02 38.0656 139.267 37.4385 139.762 36.9692C140.257 36.5 140.887 36.2676 141.651 36.2676C141.99 36.2676 142.324 36.329 142.65 36.4562C142.975 36.5833 143.232 36.7675 143.414 37.0131Z" fill="#626366"/>
<path d="M144.161 41.2979V36.3906H145.512L146.775 39.877H146.797L148.048 36.3906H149.407V41.2979H148.547V37.3554H148.534L147.057 41.2979H146.454L144.999 37.3554H144.986V41.2979H144.161Z" fill="#626366"/>
<path d="M150.613 41.2979V36.3906H153.831V37.1537H151.478V38.4035H153.709V39.1403H151.478V40.5261H153.957V41.3023H150.613V41.2979Z" fill="#626366"/>
<path d="M155.92 41.2979V37.1537H154.431V36.3906H158.274V37.1537H156.784V41.2979H155.92Z" fill="#626366"/>
<path d="M158.534 38.833C158.534 38.0568 158.777 37.4341 159.264 36.9692C159.75 36.5044 160.375 36.2676 161.135 36.2676C161.895 36.2676 162.533 36.5 163.024 36.9692C163.515 37.4341 163.758 38.0568 163.758 38.833C163.758 39.6093 163.51 40.2188 163.02 40.7012C162.529 41.1836 161.899 41.4248 161.135 41.4248C160.371 41.4248 159.759 41.1836 159.268 40.7012C158.777 40.2188 158.534 39.5961 158.534 38.833ZM159.472 38.833C159.472 39.3593 159.628 39.7935 159.941 40.1311C160.254 40.4688 160.653 40.6398 161.144 40.6398C161.635 40.6398 162.043 40.4688 162.351 40.1311C162.664 39.7935 162.816 39.3593 162.816 38.833C162.816 38.3068 162.659 37.8902 162.351 37.5525C162.043 37.2104 161.639 37.0394 161.14 37.0394C160.64 37.0394 160.245 37.2104 159.937 37.5525C159.628 37.8946 159.472 38.32 159.472 38.833Z" fill="#626366"/>
<path d="M164.683 41.3461C164.449 41.3461 164.257 41.3242 164.105 41.276L164.197 40.5085C164.292 40.5392 164.392 40.5568 164.492 40.5568C164.835 40.5568 165.082 40.355 165.234 39.9472C165.386 39.5394 165.465 38.8201 165.465 37.7896V36.3906H168.808V41.2979H167.944V37.1537H166.298V37.908C166.298 39.114 166.172 39.991 165.925 40.5305C165.677 41.0742 165.261 41.3461 164.687 41.3461H164.683Z" fill="#626366"/>
<path d="M169.78 38.833C169.78 38.0568 170.023 37.4341 170.51 36.9692C170.996 36.5044 171.621 36.2676 172.381 36.2676C173.141 36.2676 173.78 36.5 174.27 36.9692C174.761 37.4341 175.004 38.0568 175.004 38.833C175.004 39.6093 174.757 40.2188 174.266 40.7012C173.775 41.1836 173.146 41.4248 172.381 41.4248C171.617 41.4248 171.005 41.1836 170.514 40.7012C170.023 40.2188 169.78 39.5961 169.78 38.833ZM170.723 38.833C170.723 39.3593 170.879 39.7935 171.192 40.1311C171.504 40.4688 171.904 40.6398 172.394 40.6398C172.885 40.6398 173.293 40.4688 173.602 40.1311C173.914 39.7935 174.066 39.3593 174.066 38.833C174.066 38.3068 173.91 37.8902 173.602 37.5525C173.293 37.2104 172.889 37.0394 172.39 37.0394C171.891 37.0394 171.496 37.2104 171.187 37.5525C170.879 37.8946 170.723 38.32 170.723 38.833Z" fill="#626366"/>
<path d="M175.981 41.2979V36.3906H178.899V37.1537H176.845V41.2979H175.981Z" fill="#626366"/>
<path d="M179.599 41.2979V36.3906H180.463V39.9823H180.484L182.764 36.3906H183.698V41.2979H182.834V37.7369H182.821L180.55 41.2979H179.603H179.599Z" fill="#626366"/>
<path d="M184.905 41.2979V36.3906H185.769V39.9823H185.791L188.071 36.3906H189.004V41.2979H188.14V37.7369H188.127L185.856 41.2979H184.91H184.905Z" fill="#626366"/>
<path d="M87.1937 50.5903C86.9593 50.5903 86.7682 50.5684 86.6162 50.5201L86.7074 49.7527C86.8029 49.7834 86.9028 49.8009 87.0027 49.8009C87.3457 49.8009 87.5932 49.5992 87.7496 49.1913C87.9015 48.7835 87.9797 48.0643 87.9797 47.0337V45.6348H91.3233V50.542H90.4592V46.3978H88.8134V47.1521C88.8134 48.3581 88.6875 49.2352 88.44 49.7746C88.1925 50.3184 87.7756 50.5903 87.2024 50.5903H87.1937Z" fill="#626366"/>
<path d="M91.9355 50.542L94.0503 45.6348H94.7971L96.8901 50.542H95.9001L95.4485 49.4194H93.3425L92.9039 50.542H91.9355ZM93.6377 48.6695H95.1489L94.402 46.6741L93.6421 48.6695H93.6377Z" fill="#626366"/>
<path d="M97.5067 50.542V45.6348H99.0917C100.312 45.6348 100.924 46.1084 100.924 47.0556C100.924 47.5644 100.75 47.9327 100.403 48.1652C100.056 48.3976 99.5997 48.5116 99.0352 48.5116H98.3708V50.542H97.5067ZM98.3752 47.7749H98.9788C99.6952 47.7749 100.056 47.5337 100.056 47.0556C100.056 46.7925 99.9601 46.6127 99.7691 46.5162C99.578 46.4198 99.3218 46.3715 99.0048 46.3715H98.3752V47.7792V47.7749Z" fill="#626366"/>
<path d="M101.832 50.542V45.6348H102.696V49.2264H102.718L104.998 45.6348H105.931V50.542H105.067V46.9811H105.054L102.783 50.542H101.836H101.832Z" fill="#626366"/>
<path d="M111.307 46.2592L110.647 46.7854C110.529 46.6188 110.364 46.4916 110.165 46.4083C109.961 46.3206 109.752 46.2811 109.544 46.2811C109.049 46.2811 108.645 46.4521 108.332 46.7942C108.02 47.1363 107.863 47.5617 107.863 48.0748C107.863 48.5878 108.011 49.0483 108.315 49.3816C108.614 49.7149 109.014 49.8859 109.513 49.8859C110.013 49.8859 110.421 49.6974 110.694 49.3158L111.389 49.807C110.938 50.3815 110.308 50.6665 109.509 50.6665C108.749 50.6665 108.128 50.4253 107.642 49.9429C107.155 49.4605 106.912 48.8378 106.912 48.0748C106.912 47.3117 107.16 46.6846 107.655 46.2153C108.15 45.7461 108.779 45.5137 109.544 45.5137C109.882 45.5137 110.217 45.5751 110.542 45.7022C110.868 45.8294 111.124 46.0136 111.307 46.2592Z" fill="#626366"/>
<path d="M112.054 50.542V45.6348H112.918V47.5819H113.639C114.186 47.5819 114.629 47.7047 114.967 47.9503C115.302 48.1958 115.471 48.5642 115.471 49.0598C115.471 49.5553 115.302 49.9193 114.967 50.1693C114.633 50.4193 114.194 50.542 113.652 50.542H112.054ZM112.918 49.8053H113.569C114.255 49.8053 114.598 49.5597 114.598 49.0642C114.598 48.8186 114.507 48.6344 114.329 48.5072C114.151 48.38 113.895 48.3186 113.569 48.3186H112.918V49.8097V49.8053ZM116.144 50.542V45.6348H117.008V50.542H116.144Z" fill="#626366"/>
<path d="M120.069 50.542V45.6348H121.654C122.874 45.6348 123.487 46.1084 123.487 47.0556C123.487 47.5644 123.313 47.9327 122.966 48.1652C122.618 48.3976 122.162 48.5116 121.598 48.5116H120.933V50.542H120.069ZM120.933 47.7749H121.537C122.254 47.7749 122.614 47.5337 122.614 47.0556C122.614 46.7925 122.518 46.6127 122.327 46.5162C122.136 46.4198 121.88 46.3715 121.563 46.3715H120.933V47.7792V47.7749Z" fill="#626366"/>
<path d="M123.392 50.542L125.506 45.6348H126.253L128.346 50.542H127.356L126.905 49.4194H124.799L124.36 50.542H123.392ZM125.094 48.6695H126.605L125.858 46.6741L125.098 48.6695H125.094Z" fill="#626366"/>
<path d="M128.663 51.6559V49.7658H129.075C129.57 49.1957 129.818 48.2397 129.818 46.8978V45.6348H133.213V49.7658H133.756V51.6559H132.979V50.542H129.435V51.6559H128.658H128.663ZM130.048 49.7658H132.345V46.3978H130.651V46.9855C130.651 48.2529 130.452 49.1782 130.048 49.7658Z" fill="#626366"/>
<path d="M134.577 50.542V45.6348H137.795V46.3978H135.441V47.6477H137.673V48.3844H135.441V49.7702H137.921V50.5464H134.577V50.542Z" fill="#626366"/>
<path d="M142.624 51.6559V50.542H138.902V45.6348H139.766V49.7658H141.998V45.6348H142.862V49.7658H143.397V51.6559H142.619H142.624Z" fill="#626366"/>
<path d="M144.222 50.542V45.6348H145.086V47.7573H145.108L147.14 45.6348H148.308L146.037 47.902L148.46 50.542H147.244L145.108 48.0818H145.086V50.542H144.222Z" fill="#626366"/>
<path d="M148.581 48.0733C148.581 47.2971 148.824 46.6743 149.311 46.2095C149.797 45.7446 150.422 45.5078 151.182 45.5078C151.942 45.5078 152.58 45.7402 153.071 46.2095C153.562 46.6743 153.805 47.2971 153.805 48.0733C153.805 48.8495 153.557 49.4591 153.067 49.9415C152.576 50.4239 151.946 50.6651 151.182 50.6651C150.418 50.6651 149.806 50.4239 149.315 49.9415C148.824 49.4591 148.581 48.8363 148.581 48.0733ZM149.519 48.0733C149.519 48.5995 149.675 49.0337 149.988 49.3714C150.301 49.709 150.7 49.8801 151.191 49.8801C151.681 49.8801 152.09 49.709 152.398 49.3714C152.711 49.0337 152.863 48.5995 152.863 48.0733C152.863 47.547 152.706 47.1348 152.398 46.7927C152.09 46.4507 151.686 46.2796 151.186 46.2796C150.687 46.2796 150.292 46.4507 149.984 46.7927C149.675 47.1348 149.519 47.5602 149.519 48.0733Z" fill="#626366"/>
<path d="M154.777 50.5415V45.6342H155.641V49.2259H155.663L157.943 45.6342H158.877V50.5415H158.012V46.9805H157.999L155.728 50.5415H154.782H154.777ZM156.797 45.2439C156.497 45.2439 156.249 45.1606 156.05 44.9896C155.85 44.8185 155.728 44.5817 155.694 44.2835L156.154 44.1914C156.176 44.3493 156.245 44.4721 156.362 44.5642C156.48 44.6563 156.623 44.7045 156.797 44.7045C156.97 44.7045 157.114 44.6606 157.231 44.5642C157.348 44.4721 157.417 44.3493 157.439 44.1914L157.908 44.2835C157.865 44.5817 157.748 44.8185 157.548 44.9896C157.348 45.1606 157.096 45.2439 156.797 45.2439Z" fill="#626366"/>
</g>
<defs>
<linearGradient id="paint0_linear_144_4241" x1="17.2955" y1="51.8751" x2="17.2955" y2="0" gradientUnits="userSpaceOnUse">
<stop offset="0.19" stop-color="#626366"/>
<stop offset="1" stop-color="#DDDEDF"/>
</linearGradient>
<linearGradient id="paint1_linear_144_4241" x1="50.0016" y1="69.9996" x2="50.0016" y2="17.4492" gradientUnits="userSpaceOnUse">
<stop offset="0.08" stop-color="#B3D9D2"/>
<stop offset="0.18" stop-color="#9BCFC9"/>
<stop offset="0.33" stop-color="#78C1BD"/>
<stop offset="0.48" stop-color="#5FB8B5"/>
<stop offset="0.62" stop-color="#50B2AF"/>
<stop offset="0.73" stop-color="#4BB0AE"/>
</linearGradient>
<clipPath id="clip0_144_4241">
<rect width="189" height="70" fill="white"/>
</clipPath>
</defs>
</svg>
